<svg width="1500" height="500" viewBox="0 0 1500 500" fill="none" xmlns="http://www.w3.org/2000/svg">
<g clip-path="url(#clip0_722_37)">
<rect width="1500" height="500" fill="white"/>
<rect x="716.5" y="426.5" width="155" height="513" stroke="white" stroke-width="7"/>
<rect width="1500" height="500" fill="#0022FF"/>
<rect x="1023.5" y="35.5" width="647" height="384" stroke="white" stroke-width="7"/>
<rect x="95.5" y="-372.5" width="372" height="513" stroke="white" stroke-width="7"/>
<rect x="-216.5" y="275.5" width="372" height="513" stroke="white" stroke-width="7"/>
<rect x="-42.5" y="-64.5" width="363" height="513" stroke="white" stroke-width="7"/>
<rect x="268.5" y="217.5" width="317" height="513" stroke="white" stroke-width="7"/>
<rect x="541.5" y="349.5" width="149" height="513" stroke="white" stroke-width="7"/>
<rect x="737.5" y="349.5" width="215" height="513" stroke="white" stroke-width="7"/>
<rect x="856.5" y="409.5" width="137" height="405" stroke="white" stroke-width="7"/>
<path d="M647.976 290.024C639.357 290.024 632.445 287.549 627.24 282.6C622.12 277.651 619.56 270.995 619.56 262.632V225.768C619.56 217.405 622.12 210.749 627.24 205.8C632.445 200.851 639.357 198.376 647.976 198.376C656.595 198.376 663.464 200.851 668.584 205.8C673.789 210.749 676.392 217.405 676.392 225.768V262.632C676.392 270.995 673.789 277.651 668.584 282.6C663.464 287.549 656.595 290.024 647.976 290.024ZM647.976 269.416C649.341 269.416 650.408 268.904 651.176 267.88C651.944 266.856 652.328 265.448 652.328 263.656V224.744C652.328 222.952 651.944 221.544 651.176 220.52C650.408 219.496 649.341 218.984 647.976 218.984C646.611 218.984 645.544 219.496 644.776 220.52C644.008 221.544 643.624 222.952 643.624 224.744V263.656C643.624 265.448 644.008 266.856 644.776 267.88C645.544 268.904 646.611 269.416 647.976 269.416ZM712.792 199.4C717.912 199.4 722.435 200.637 726.36 203.112C730.371 205.501 733.485 208.872 735.704 213.224C737.923 217.576 739.032 222.568 739.032 228.2C739.032 233.661 737.965 238.483 735.832 242.664C733.784 246.845 730.883 250.088 727.128 252.392C723.373 254.611 719.021 255.72 714.072 255.72H706.904C706.392 255.72 706.136 255.976 706.136 256.488V287.08C706.136 287.677 705.965 288.147 705.624 288.488C705.283 288.829 704.813 289 704.216 289H683.992C683.395 289 682.925 288.829 682.584 288.488C682.243 288.147 682.072 287.677 682.072 287.08V201.32C682.072 200.723 682.243 200.253 682.584 199.912C682.925 199.571 683.395 199.4 683.992 199.4H712.792ZM708.568 237.16C710.531 237.16 712.067 236.477 713.176 235.112C714.371 233.661 714.968 231.528 714.968 228.712C714.968 225.896 714.371 223.763 713.176 222.312C712.067 220.776 710.531 220.008 708.568 220.008H706.904C706.392 220.008 706.136 220.264 706.136 220.776V236.392C706.136 236.904 706.392 237.16 706.904 237.16H708.568ZM779.148 289C777.868 289 777.185 288.403 777.1 287.208L775.692 277.608C775.692 277.437 775.607 277.267 775.436 277.096C775.265 276.925 775.052 276.84 774.796 276.84H763.532C763.276 276.84 763.063 276.925 762.892 277.096C762.721 277.267 762.636 277.437 762.636 277.608L761.356 287.208C761.271 288.403 760.588 289 759.308 289H739.212C737.847 289 737.292 288.317 737.548 286.952L755.724 201.064C755.98 199.955 756.705 199.4 757.9 199.4H781.196C782.391 199.4 783.116 199.955 783.372 201.064L801.548 286.952V287.464C801.548 288.488 800.951 289 799.756 289H779.148ZM765.452 257.64C765.452 258.152 765.665 258.408 766.092 258.408H772.108C772.705 258.408 772.919 258.152 772.748 257.64L769.292 234.6C769.207 234.259 769.079 234.088 768.908 234.088C768.737 234.088 768.609 234.259 768.524 234.6L765.452 257.64ZM830.583 198.376C836.13 198.376 840.994 199.571 845.175 201.96C849.356 204.349 852.599 207.72 854.903 212.072C857.207 216.339 858.359 221.288 858.359 226.92V261.48C858.359 267.624 857.036 272.957 854.391 277.48C851.746 282.003 848.034 285.331 843.255 287.464C842.828 287.549 842.615 287.848 842.615 288.36V298.216C842.615 298.813 842.444 299.283 842.103 299.624C841.762 299.965 841.292 300.136 840.695 300.136H820.471C819.874 300.136 819.404 299.965 819.063 299.624C818.722 299.283 818.551 298.813 818.551 298.216V288.36C818.551 287.848 818.338 287.549 817.911 287.464C813.218 285.245 809.548 281.875 806.903 277.352C804.258 272.829 802.935 267.539 802.935 261.48V226.92C802.935 221.288 804.087 216.339 806.391 212.072C808.695 207.72 811.938 204.349 816.119 201.96C820.3 199.571 825.122 198.376 830.583 198.376ZM826.999 264.04C826.999 265.661 827.298 266.984 827.895 268.008C828.578 268.947 829.474 269.416 830.583 269.416C831.692 269.416 832.588 268.947 833.271 268.008C833.954 266.984 834.295 265.661 834.295 264.04V224.36C834.295 222.739 833.954 221.459 833.271 220.52C832.588 219.496 831.692 218.984 830.583 218.984C829.474 218.984 828.578 219.496 827.895 220.52C827.298 221.459 826.999 222.739 826.999 224.36V264.04ZM891.723 290.024C886.176 290.024 881.312 288.872 877.131 286.568C872.95 284.264 869.707 281.021 867.403 276.84C865.099 272.659 863.947 267.837 863.947 262.376V201.32C863.947 200.723 864.118 200.253 864.459 199.912C864.8 199.571 865.27 199.4 865.867 199.4H886.091C886.688 199.4 887.158 199.571 887.499 199.912C887.84 200.253 888.011 200.723 888.011 201.32V264.68C888.011 266.131 888.352 267.283 889.035 268.136C889.718 268.989 890.614 269.416 891.723 269.416C892.832 269.416 893.686 268.989 894.283 268.136C894.966 267.283 895.307 266.131 895.307 264.68V201.32C895.307 200.723 895.478 200.253 895.819 199.912C896.16 199.571 896.63 199.4 897.227 199.4H917.451C918.048 199.4 918.518 199.571 918.859 199.912C919.2 200.253 919.371 200.723 919.371 201.32V262.376C919.371 267.837 918.219 272.659 915.915 276.84C913.611 281.021 910.368 284.264 906.187 286.568C902.006 288.872 897.184 290.024 891.723 290.024ZM977.028 218.088C977.028 218.685 976.857 219.155 976.516 219.496C976.175 219.837 975.705 220.008 975.108 220.008H950.66C950.148 220.008 949.892 220.264 949.892 220.776V233.064C949.892 233.576 950.148 233.832 950.66 233.832H963.332C963.929 233.832 964.399 234.003 964.74 234.344C965.081 234.685 965.252 235.155 965.252 235.752V252.52C965.252 253.117 965.081 253.587 964.74 253.928C964.399 254.269 963.929 254.44 963.332 254.44H950.66C950.148 254.44 949.892 254.696 949.892 255.208V267.624C949.892 268.136 950.148 268.392 950.66 268.392H975.108C975.705 268.392 976.175 268.563 976.516 268.904C976.857 269.245 977.028 269.715 977.028 270.312V287.08C977.028 287.677 976.857 288.147 976.516 288.488C976.175 288.829 975.705 289 975.108 289H927.748C927.151 289 926.681 288.829 926.34 288.488C925.999 288.147 925.828 287.677 925.828 287.08V201.32C925.828 200.723 925.999 200.253 926.34 199.912C926.681 199.571 927.151 199.4 927.748 199.4H975.108C975.705 199.4 976.175 199.571 976.516 199.912C976.857 200.253 977.028 200.723 977.028 201.32V218.088Z" fill="white"/>
<rect x="802.5" y="-386.5" width="194" height="513" stroke="white" stroke-width="7"/>
<rect x="536.5" y="-372.5" width="194" height="513" stroke="white" stroke-width="7"/>
<rect x="428.5" y="-425.5" width="194" height="513" stroke="white" stroke-width="7"/>
<rect x="1184.5" y="-311.5" width="372" height="593" stroke="white" stroke-width="7"/>
<rect x="1053.5" y="203.5" width="372" height="593" stroke="white" stroke-width="7"/>
</g>
<defs>
<clipPath id="clip0_722_37">
<rect width="1500" height="500" fill="white"/>
</clipPath>
</defs>
</svg>
